<?xml version="1.0" encoding="utf-8"?>
<!-- Generator: Adobe Illustrator 22.0.1, SVG Export Plug-In . SVG Version: 6.00 Build 0)  -->
<svg version="1.1" id="Layer_1" xmlns="http://www.w3.org/2000/svg" xmlns:xlink="http://www.w3.org/1999/xlink" x="0px" y="0px"
	 viewBox="0 0 512 512" style="enable-background:new 0 0 512 512;" xml:space="preserve">
<style type="text/css">
	.st0{fill:#35216D;}
	.st1{fill:#EDF3FC;}
	.st2{fill:#330D84;}
	.st3{fill:#FFBE1B;}
	.st4{fill:#0061F3;}
	.st5{fill:#8C7BFD;}
	.st6{fill:#FFFFFF;}
	.st7{fill:#5932AE;}
	.st8{fill:#1C46C4;}
	.st9{fill:#6857E5;}
	.st10{fill:#5D8EF9;}
	.st11{fill:#8AC9F9;}
	.st12{fill:#FFE37B;}
	.st13{fill:#FFD000;}
	.st14{fill:#2EF39E;}
	.st15{fill:#330D84;stroke:#330D84;stroke-width:0.6306;stroke-linecap:round;stroke-linejoin:round;stroke-miterlimit:10;}
	.st16{fill:#FFFFFF;stroke:#FFFFFF;stroke-width:0.737;stroke-linecap:round;stroke-linejoin:round;stroke-miterlimit:10;}
	.st17{fill:none;}
	.st18{fill:#FDB813;}
</style>
<g>
	<g>
		<g>
			<path class="st1" d="M255.999,40.928c-118.778,0-215.071,96.294-215.071,215.074c0,118.776,96.292,215.068,215.071,215.068
				S471.07,374.778,471.07,256.002C471.07,137.222,374.777,40.928,255.999,40.928z"/>
		</g>
	</g>
	<g>
		<g>
			<path class="st1" d="M255.999,1C115.391,1,1,115.392,1,256.002C1,396.609,115.391,511,255.999,511S511,396.609,511,256.002
				C511,115.392,396.607,1,255.999,1z M255.999,502.832c-136.103,0-246.83-110.728-246.83-246.83
				c0-136.104,110.727-246.833,246.83-246.833c136.102,0,246.832,110.729,246.832,246.833
				C502.831,392.104,392.101,502.832,255.999,502.832z"/>
		</g>
	</g>
	<path class="st3" d="M354.314,315.691C364.901,298.291,371,277.857,371,256c0-63.513-51.487-115-115-115s-115,51.487-115,115
		s51.487,115,115,115c19.801,0,38.432-5.005,54.699-13.818l60.301,23.4L354.314,315.691z"/>
	<circle class="st7" cx="256" cy="256" r="20"/>
	<circle class="st7" cx="196" cy="256" r="20"/>
	<circle class="st7" cx="316" cy="256" r="20"/>
	<path class="st2" d="M402.64,148.851l2.606,0.653l-2.606,0.653c-15.257,3.823-27.164,15.734-30.986,30.991l-0.656,2.603
		l-0.654-2.603c-3.822-15.257-15.732-27.168-30.993-30.991l-2.596-0.653l2.596-0.653c15.262-3.823,27.172-15.737,30.993-30.986
		l0.654-2.601l0.656,2.601C375.476,133.114,387.383,145.028,402.64,148.851L402.64,148.851z"/>
	<path class="st10" d="M182.486,144.827l2.271,0.569l-2.271,0.569c-13.297,3.332-23.675,13.713-27.005,27.01l-0.572,2.268
		l-0.57-2.268c-3.331-13.297-13.711-23.678-27.012-27.01l-2.263-0.569l2.263-0.569c13.301-3.332,23.681-13.716,27.012-27.005
		l0.57-2.266l0.572,2.266C158.811,131.111,169.188,141.495,182.486,144.827L182.486,144.827z"/>
	<path class="st10" d="M214.478,105.17l1.522,0.381l-1.522,0.381c-8.91,2.233-15.864,9.189-18.096,18.099l-0.383,1.52l-0.382-1.52
		c-2.232-8.91-9.188-15.867-18.101-18.099L176,105.551l1.516-0.381c8.913-2.233,15.869-9.191,18.101-18.096l0.382-1.519l0.383,1.519
		C198.614,95.979,205.568,102.937,214.478,105.17L214.478,105.17z"/>
	<path class="st3" d="M156.811,354.067l1.98,0.496l-1.98,0.496c-11.592,2.904-20.638,11.954-23.541,23.545l-0.498,1.977
		l-0.497-1.977c-2.904-11.592-11.952-20.641-23.547-23.545l-1.972-0.496l1.972-0.496c11.595-2.904,20.644-11.956,23.547-23.541
		l0.497-1.976l0.498,1.976C136.173,342.111,145.219,351.163,156.811,354.067L156.811,354.067z"/>
	<path class="st3" d="M193.572,381.202l1.257,0.315l-1.257,0.315c-7.36,1.844-13.104,7.59-14.947,14.95l-0.316,1.255l-0.315-1.255
		c-1.844-7.36-7.589-13.106-14.951-14.95l-1.252-0.315l1.252-0.315c7.362-1.844,13.107-7.591,14.951-14.947l0.315-1.254l0.316,1.254
		C180.469,373.61,186.213,379.357,193.572,381.202L193.572,381.202z"/>
</g>
</svg>
