<?xml version="1.0" encoding="UTF-8"?>
<!DOCTYPE svg PUBLIC "-//W3C//DTD SVG 1.1//EN" "http://www.w3.org/Graphics/SVG/1.1/DTD/svg11.dtd">
<!-- Creator: CorelDRAW -->
<svg xmlns="http://www.w3.org/2000/svg" xml:space="preserve" width="2048px" height="2048px" style="shape-rendering:geometricPrecision; text-rendering:geometricPrecision; image-rendering:optimizeQuality; fill-rule:evenodd; clip-rule:evenodd"
viewBox="0 0 2048 2048"
 xmlns:xlink="http://www.w3.org/1999/xlink">
 <defs>
  <style type="text/css">
   <![CDATA[
    .fil2 {fill:none}
    .fil14 {fill:#001F37}
    .fil10 {fill:#1E88E5}
    .fil8 {fill:#5F3D31}
    .fil5 {fill:#64B5F6}
    .fil1 {fill:#8E24AA}
    .fil12 {fill:#A61E1E}
    .fil0 {fill:#BA68C8}
    .fil13 {fill:#C62828}
    .fil9 {fill:#C7B7B7}
    .fil3 {fill:#DBC0B2}
    .fil7 {fill:#DFC4B6}
    .fil16 {fill:#E53935}
    .fil6 {fill:#ECCEBE}
    .fil15 {fill:#FDC04B}
    .fil4 {fill:#FFDDCC}
    .fil11 {fill:white}
   ]]>
  </style>
   <clipPath id="id0">
    <path d="M1024 0c565.538,0 1024,458.462 1024,1024 0,565.538 -458.462,1024 -1024,1024 -565.538,0 -1024,-458.462 -1024,-1024 0,-565.538 458.462,-1024 1024,-1024z"/>
   </clipPath>
 </defs>
 <g id="Layer_x0020_1">
  <metadata id="CorelCorpID_0Corel-Layer"/>
  <path class="fil0" d="M1024 0c565.538,0 1024,458.462 1024,1024 0,565.538 -458.462,1024 -1024,1024 -565.538,0 -1024,-458.462 -1024,-1024 0,-565.538 458.462,-1024 1024,-1024z"/>
  <g style="clip-path:url(#id0)">
   <g id="_385680712">
    <g>
     <polygon id="_2856415441" class="fil1" points="1526.13,556.454 2662.01,1692.34 2665.83,1697.08 2669.53,1701.91 2673.12,1706.83 2676.6,1711.85 2679.95,1716.94 2683.19,1722.13 2686.3,1727.39 2689.29,1732.74 2692.15,1738.16 2694.89,1743.66 2697.49,1749.24 2699.96,1754.89 2702.3,1760.6 2704.5,1766.39 2706.57,1772.25 2708.49,1778.17 2710.27,1784.15 2711.9,1790.19 2713.39,1796.29 2714.73,1802.45 2715.92,1808.66 2716.96,1814.92 2717.85,1821.24 2718.57,1827.6 2719.14,1834.01 2719.55,1840.47 2719.8,1846.96 2719.88,1853.5 1584,717.619 1583.92,711.081 1583.67,704.584 1583.26,698.128 1582.69,691.718 1581.96,685.354 1581.08,679.039 1580.04,672.775 1578.85,666.563 1577.51,660.406 1576.02,654.305 1574.39,648.264 1572.61,642.283 1570.68,636.364 1568.62,630.51 1566.42,624.722 1564.08,619.003 1561.61,613.355 1559.01,607.78 1556.27,602.279 1553.41,596.854 1550.42,591.508 1547.31,586.243 1544.07,581.06 1540.72,575.963 1537.24,570.951 1533.65,566.027 1529.94,561.195 "/>
     <polygon id="_285641568" class="fil1" points="1584,717.619 2719.88,1853.5 2719.8,1860.04 2719.55,1866.54 2719.14,1872.99 2718.57,1879.4 2717.85,1885.77 2716.96,1892.08 2715.92,1898.35 2714.73,1904.56 2713.39,1910.71 2711.9,1916.81 2710.27,1922.86 2708.49,1928.84 2706.57,1934.76 2704.5,1940.61 2702.3,1946.4 2699.96,1952.12 2697.49,1957.76 2694.89,1963.34 2692.15,1968.84 2689.29,1974.27 2686.3,1979.61 2683.19,1984.88 2679.95,1990.06 2676.6,1995.16 2673.12,2000.17 2669.53,2005.09 2665.83,2009.92 2662.01,2014.67 2658.08,2019.31 2654.04,2023.86 2649.9,2028.31 2645.65,2032.66 1509.77,896.779 1514.02,892.429 1518.16,887.978 1522.2,883.429 1526.13,878.783 1529.94,874.042 1533.65,869.211 1537.24,864.288 1540.72,859.275 1544.07,854.177 1547.31,848.995 1550.42,843.729 1553.41,838.384 1556.27,832.959 1559.01,827.457 1561.61,821.883 1564.08,816.234 1566.42,810.516 1568.62,804.728 1570.68,798.875 1572.61,792.955 1574.39,786.974 1576.02,780.932 1577.51,774.832 1578.85,768.675 1580.04,762.464 1581.08,756.199 1581.96,749.885 1582.69,743.521 1583.26,737.11 1583.67,730.655 1583.92,724.158 "/>
     <polygon id="_285643248" class="fil1" points="1509.77,896.779 2645.65,2032.66 2641.3,2036.91 2636.85,2041.05 2632.3,2045.09 2627.66,2049.02 2622.92,2052.84 2618.08,2056.54 2613.16,2060.13 2608.15,2063.61 2603.05,2066.96 2597.87,2070.2 2592.6,2073.31 2587.26,2076.3 2581.83,2079.16 2576.33,2081.9 2570.76,2084.5 2565.11,2086.97 2559.39,2089.31 2553.6,2091.51 2547.75,2093.57 2541.83,2095.5 2535.85,2097.28 2529.81,2098.91 2523.7,2100.4 2517.55,2101.74 2511.34,2102.93 2505.07,2103.97 2498.76,2104.85 2492.39,2105.58 2485.98,2106.15 2479.53,2106.56 2473.03,2106.81 2466.49,2106.89 1330.61,971.009 1337.15,970.926 1343.65,970.679 1350.1,970.269 1356.51,969.7 1362.88,968.972 1369.19,968.088 1375.45,967.05 1381.67,965.859 1387.82,964.518 1393.92,963.029 1399.97,961.393 1405.95,959.613 1411.86,957.692 1417.72,955.629 1423.51,953.428 1429.23,951.09 1434.87,948.62 1440.45,946.015 1445.95,943.281 1451.38,940.419 1456.72,937.43 1461.99,934.316 1467.17,931.08 1472.27,927.725 1477.28,924.25 1482.2,920.658 1487.03,916.953 1491.77,913.135 1496.42,909.206 1500.97,905.169 1505.42,901.026 "/>
     <polygon id="_285643440" class="fil1" points="1330.61,971.009 2466.49,2106.89 2464.1,2106.88 2461.72,2106.85 2459.34,2106.79 2456.97,2106.72 2454.61,2106.62 2452.26,2106.51 2449.91,2106.37 2447.56,2106.21 2445.23,2106.03 2442.9,2105.83 2440.58,2105.61 2438.27,2105.36 2435.96,2105.1 2433.66,2104.82 2431.37,2104.51 2429.08,2104.19 2426.8,2103.84 2424.53,2103.48 2422.27,2103.09 2420.01,2102.69 2417.76,2102.26 2415.52,2101.82 2413.29,2101.35 2411.06,2100.87 2408.84,2100.36 2406.63,2099.84 2404.42,2099.29 2402.22,2098.73 2400.03,2098.15 2397.85,2097.54 2395.68,2096.92 2393.51,2096.28 1257.63,960.398 1259.8,961.039 1261.97,961.661 1264.15,962.264 1266.34,962.847 1268.54,963.411 1270.75,963.955 1272.96,964.479 1275.18,964.985 1277.4,965.469 1279.64,965.935 1281.88,966.38 1284.13,966.806 1286.39,967.211 1288.65,967.596 1290.92,967.961 1293.2,968.306 1295.49,968.631 1297.78,968.935 1300.08,969.219 1302.38,969.481 1304.7,969.725 1307.02,969.946 1309.35,970.146 1311.68,970.327 1314.02,970.487 1316.37,970.625 1318.73,970.742 1321.09,970.837 1323.46,970.912 1325.84,970.966 1328.22,970.998 "/>
     <polygon id="_285643344" class="fil1" points="1028.77,764.02 2164.65,1899.9 2166.99,1902.61 2169.03,1905.38 2170.74,1908.2 2172.09,1911.08 2173.05,1914.01 2173.59,1916.98 2173.68,1920 2173.3,1923.07 2172.4,1926.17 2170.97,1929.3 2168.98,1932.47 2166.38,1935.67 2163.16,1938.9 1027.28,803.017 1030.5,799.789 1033.09,796.589 1035.09,793.42 1036.52,790.283 1037.42,787.183 1037.8,784.121 1037.71,781.103 1037.17,778.127 1036.21,775.199 1034.86,772.322 1033.15,769.498 1031.11,766.73 "/>
     <polygon id="_285643272" class="fil1" points="1027.28,803.017 2163.16,1938.9 2166.24,1942.8 2169.1,1946.81 2171.77,1950.92 2174.25,1955.13 2176.53,1959.43 2178.64,1963.83 2180.57,1968.31 2182.32,1972.87 2183.91,1977.52 2185.34,1982.24 2186.61,1987.03 2187.73,1991.89 2188.71,1996.82 2189.54,2001.81 2190.25,2006.85 2190.82,2011.95 2191.27,2017.1 2191.6,2022.29 2191.82,2027.53 2191.93,2032.81 2191.94,2038.12 2191.86,2043.46 2191.68,2048.83 2191.41,2054.23 2191.07,2059.64 2190.65,2065.08 2190.16,2070.52 2189.6,2075.97 2188.99,2081.43 2188.32,2086.89 2187.61,2092.35 2186.85,2097.8 1050.97,961.921 1051.73,956.468 1052.44,951.01 1053.11,945.55 1053.72,940.091 1054.28,934.637 1054.77,929.193 1055.19,923.761 1055.53,918.346 1055.8,912.951 1055.97,907.58 1056.06,902.237 1056.05,896.925 1055.94,891.649 1055.72,886.411 1055.39,881.216 1054.94,876.067 1054.37,870.968 1053.66,865.924 1052.83,860.936 1051.85,856.009 1050.73,851.148 1049.46,846.355 1048.03,841.634 1046.44,836.989 1044.68,832.425 1042.76,827.943 1040.65,823.549 1038.37,819.246 1035.89,815.037 1033.22,810.927 1030.36,806.919 "/>
     <polygon id="_285642768" class="fil1" points="1099.44,941.066 2235.32,2076.95 2202.81,2079.87 1066.93,943.992 "/>
     <polygon id="_285642984" class="fil1" points="1080.52,960.329 2216.4,2096.21 2217.4,2097.35 2218.35,2098.58 2219.23,2099.9 2220.05,2101.31 2220.81,2102.8 2221.5,2104.36 2222.13,2106.01 2222.69,2107.72 2223.18,2109.5 2223.61,2111.34 2223.97,2113.25 2224.25,2115.21 2224.47,2117.22 2224.62,2119.29 2224.7,2121.4 2224.71,2123.56 2224.64,2125.76 2224.5,2127.99 2224.29,2130.25 2224,2132.55 2223.64,2134.87 2223.2,2137.22 2222.68,2139.58 2222.09,2141.96 2221.41,2144.35 2220.66,2146.75 1084.78,1010.87 1085.53,1008.47 1086.2,1006.08 1086.8,1003.7 1087.32,1001.33 1087.75,998.989 1088.12,996.668 1088.41,994.372 1088.62,992.105 1088.76,989.873 1088.83,987.676 1088.82,985.52 1088.74,983.407 1088.59,981.341 1088.37,979.325 1088.09,977.363 1087.73,975.458 1087.3,973.614 1086.81,971.834 1086.25,970.123 1085.62,968.482 1084.93,966.916 1084.17,965.429 1083.35,964.022 1082.47,962.702 1081.52,961.47 "/>
     <polygon id="_285642840" class="fil1" points="1084.78,1010.87 2220.66,2146.75 2219.84,2149.13 2218.96,2151.45 2218.02,2153.72 2217.03,2155.93 2216,2158.07 2214.91,2160.16 2213.78,2162.17 2212.6,2164.12 2211.39,2166 2210.13,2167.81 2208.85,2169.54 2207.53,2171.19 2206.18,2172.77 2204.81,2174.26 2203.41,2175.67 2201.99,2176.99 2200.55,2178.22 2199.1,2179.35 2197.63,2180.4 2196.15,2181.35 2194.67,2182.19 2193.17,2182.94 2191.68,2183.59 2190.18,2184.12 2188.69,2184.55 2187.2,2184.87 2185.72,2185.08 2184.26,2185.17 2182.8,2185.14 2181.36,2185 2179.94,2184.73 2178.54,2184.33 1042.66,1048.45 1044.06,1048.84 1045.48,1049.11 1046.92,1049.26 1048.37,1049.29 1049.84,1049.2 1051.32,1048.99 1052.81,1048.67 1054.3,1048.24 1055.8,1047.7 1057.29,1047.06 1058.78,1046.31 1060.27,1045.46 1061.75,1044.52 1063.22,1043.47 1064.67,1042.33 1066.11,1041.1 1067.53,1039.78 1068.93,1038.38 1070.3,1036.89 1071.65,1035.31 1072.97,1033.66 1074.25,1031.93 1075.51,1030.12 1076.72,1028.24 1077.89,1026.29 1079.03,1024.28 1080.11,1022.19 1081.15,1020.04 1082.14,1017.84 1083.08,1015.57 1083.96,1013.24 "/>
     <polygon id="_285643128" class="fil1" points="1042.66,1048.45 2178.54,2184.33 2177.82,2184.08 2177.11,2183.79 2176.42,2183.47 2175.75,2183.12 2175.09,2182.74 2174.45,2182.33 2173.83,2181.9 2173.22,2181.43 1037.33,1045.55 1037.94,1046.01 1038.57,1046.45 1039.21,1046.86 1039.87,1047.24 1040.54,1047.59 1041.23,1047.91 1041.94,1048.19 "/>
     <polygon id="_285644088" class="fil1" points="1037.33,1045.55 2173.22,2181.43 2172.56,2184.06 2171.9,2186.64 2171.23,2189.17 2170.56,2191.65 2169.9,2194.07 2169.23,2196.45 2168.56,2198.77 2167.89,2201.04 2167.23,2203.25 2166.57,2205.4 2165.91,2207.49 2165.26,2209.53 2164.61,2211.5 2163.97,2213.41 2163.33,2215.26 2162.71,2217.04 2162.09,2218.76 2161.48,2220.41 2160.89,2221.99 2160.3,2223.5 2159.73,2224.94 2159.17,2226.31 2158.62,2227.61 2158.09,2228.83 2157.57,2229.98 2157.08,2231.05 2156.59,2232.05 2156.13,2232.96 2155.69,2233.8 2155.26,2234.55 2154.86,2235.23 2154.48,2235.81 1018.6,1099.93 1018.98,1099.34 1019.38,1098.67 1019.81,1097.92 1020.25,1097.08 1020.71,1096.17 1021.19,1095.17 1021.69,1094.1 1022.21,1092.95 1022.74,1091.73 1023.29,1090.43 1023.85,1089.06 1024.42,1087.62 1025,1086.11 1025.6,1084.52 1026.21,1082.87 1026.83,1081.16 1027.45,1079.37 1028.09,1077.53 1028.73,1075.62 1029.37,1073.64 1030.03,1071.61 1030.69,1069.52 1031.35,1067.36 1032.01,1065.15 1032.68,1062.89 1033.35,1060.57 1034.01,1058.19 1034.68,1055.76 1035.35,1053.28 1036.01,1050.75 1036.68,1048.18 "/>
     <polygon id="_285643656" class="fil1" points="1018.6,1099.93 2154.48,2235.81 2153.4,2237.35 2152.19,2238.97 2150.87,2240.67 2149.43,2242.43 2147.88,2244.26 2146.21,2246.16 2144.45,2248.12 2142.58,2250.14 2140.61,2252.21 2138.54,2254.33 2136.39,2256.49 2134.14,2258.7 2131.81,2260.95 2129.41,2263.24 2126.92,2265.56 2124.36,2267.9 2121.73,2270.28 2119.03,2272.67 2116.27,2275.08 2113.44,2277.5 2110.57,2279.94 2107.64,2282.38 2104.66,2284.83 2101.63,2287.28 2098.56,2289.72 2095.45,2292.16 2092.31,2294.58 2089.14,2297 2085.94,2299.39 2082.71,2301.76 2079.46,2304.11 2076.2,2306.43 940.318,1170.55 943.582,1168.23 946.83,1165.88 950.056,1163.51 953.258,1161.11 956.431,1158.7 959.573,1156.28 962.681,1153.84 965.748,1151.4 968.774,1148.95 971.754,1146.5 974.685,1144.06 977.563,1141.62 980.384,1139.2 983.147,1136.79 985.844,1134.39 988.476,1132.02 991.037,1129.67 993.524,1127.36 995.933,1125.07 998.261,1122.82 1000.51,1120.61 1002.66,1118.44 1004.73,1116.32 1006.69,1114.26 1008.56,1112.24 1010.33,1110.28 1011.99,1108.38 1013.55,1106.55 1014.99,1104.78 1016.31,1103.09 1017.51,1101.47 "/>
     <polygon id="_285643584" class="fil1" points="940.318,1170.55 2076.2,2306.43 2076.2,2340.92 940.318,1205.04 "/>
     <polygon id="_285643920" class="fil1" points="940.318,1205.04 2076.2,2340.92 2083.56,2369.54 947.675,1233.66 "/>
     <polygon id="_285644160" class="fil1" points="1180.44,1362.57 2316.32,2498.45 2319.25,2501.3 2322.1,2504.58 2324.87,2508.27 2327.57,2512.36 2330.19,2516.83 2332.75,2521.67 2335.24,2526.85 2337.67,2532.36 2340.03,2538.19 2342.34,2544.31 2344.59,2550.71 2346.79,2557.37 2348.95,2564.27 2351.05,2571.41 2353.11,2578.76 2355.13,2586.3 2357.12,2594.02 2359.06,2601.9 2360.98,2609.92 2362.86,2618.07 2364.72,2626.33 2366.56,2634.69 2368.37,2643.12 2370.17,2651.61 2371.95,2660.14 2373.71,2668.7 2375.47,2677.27 2377.22,2685.83 2378.96,2694.36 2380.71,2702.86 2382.45,2711.29 2384.2,2719.65 1248.32,1583.77 1246.57,1575.41 1244.82,1566.98 1243.08,1558.48 1241.34,1549.95 1239.59,1541.39 1237.83,1532.82 1236.06,1524.26 1234.28,1515.73 1232.49,1507.24 1230.68,1498.8 1228.84,1490.45 1226.98,1482.19 1225.1,1474.04 1223.18,1466.01 1221.24,1458.13 1219.25,1450.41 1217.23,1442.87 1215.17,1435.53 1213.07,1428.39 1210.91,1421.48 1208.71,1414.82 1206.46,1408.42 1204.15,1402.3 1201.78,1396.48 1199.36,1390.97 1196.87,1385.79 1194.31,1380.95 1191.69,1376.48 1188.99,1372.39 1186.22,1368.7 1183.37,1365.42 "/>
     <polygon id="_285643632" class="fil1" points="771.999,1170.54 1907.88,2306.43 1904.62,2304.11 1901.37,2301.76 1898.14,2299.39 1894.94,2296.99 1891.77,2294.58 1888.63,2292.16 1885.52,2289.72 1882.45,2287.28 1879.43,2284.83 1876.45,2282.38 1873.52,2279.94 1870.64,2277.5 1867.82,2275.08 1865.06,2272.67 1862.36,2270.27 1859.73,2267.9 1857.17,2265.56 721.284,1129.67 723.845,1132.02 726.475,1134.39 729.174,1136.78 731.936,1139.19 734.757,1141.62 737.634,1144.06 740.565,1146.5 743.545,1148.95 746.571,1151.39 749.638,1153.84 752.744,1156.27 755.886,1158.7 759.06,1161.11 762.262,1163.5 765.487,1165.88 768.734,1168.22 "/>
     <polygon id="_285643896" class="fil1" points="1091.02,1583.77 2226.9,2719.65 2208.43,2719.65 1072.55,1583.77 "/>
     <polygon id="_285644016" class="fil1" points="1072.55,1583.77 2208.43,2719.65 2102.5,2719.65 966.623,1583.77 "/>
     <polygon id="_285644064" class="fil1" points="966.623,1583.77 2102.5,2719.65 2064.36,2719.65 928.479,1583.77 "/>
     <polygon id="_285644256" class="fil1" points="928.479,1583.77 2064.36,2719.65 2039.64,2719.65 903.759,1583.77 "/>
     <polygon id="_285644640" class="fil1" points="903.759,1583.77 2039.64,2719.65 2036.87,2719.65 900.987,1583.77 "/>
     <polygon id="_285644688" class="fil1" points="900.987,1583.77 2036.87,2719.65 1992.04,2719.65 856.158,1583.77 "/>
     <polygon id="_285644952" class="fil1" points="856.158,1583.77 1992.04,2719.65 1947.21,2719.65 811.329,1583.77 "/>
     <polygon id="_285644352" class="fil1" points="811.329,1583.77 1947.21,2719.65 1944.8,2719.65 808.915,1583.77 "/>
     <polygon id="_285644400" class="fil1" points="808.915,1583.77 1944.8,2719.65 1904.91,2719.65 769.025,1583.77 "/>
     <polygon id="_285644712" class="fil1" points="769.025,1583.77 1904.91,2719.65 1881.93,2719.65 746.051,1583.77 "/>
     <polygon id="_285644592" class="fil1" points="746.051,1583.77 1881.93,2719.65 1775.65,2719.65 639.773,1583.77 "/>
     <polygon id="_285644616" class="fil1" points="639.773,1583.77 1775.65,2719.65 1757.17,2719.65 621.292,1583.77 "/>
     <polygon id="_285644760" class="fil1" points="621.292,1583.77 1757.17,2719.65 1599.88,2719.65 464,1583.77 "/>
     <polygon id="_285645648" class="fil1" points="675.103,1046.03 1810.98,2181.91 1810.44,2182.29 1809.88,2182.65 1809.32,2182.99 1808.74,2183.3 1808.14,2183.59 1807.54,2183.86 1806.92,2184.1 1806.29,2184.33 670.412,1048.44 671.04,1048.22 671.657,1047.98 672.262,1047.71 672.854,1047.42 673.434,1047.1 674.004,1046.77 674.56,1046.41 "/>
     <polygon id="_285645552" class="fil1" points="670.412,1048.44 1806.29,2184.33 1804.89,2184.72 1803.47,2184.99 1802.03,2185.14 1800.57,2185.17 1799.1,2185.08 1797.62,2184.87 1796.14,2184.55 1794.64,2184.12 1793.15,2183.58 1791.65,2182.94 1790.16,2182.19 1788.67,2181.34 1787.19,2180.4 1785.73,2179.35 1784.27,2178.21 1782.83,2176.98 1781.41,2175.67 645.532,1039.78 646.952,1041.1 648.39,1042.33 649.845,1043.47 651.313,1044.51 652.792,1045.46 654.278,1046.31 655.771,1047.06 657.266,1047.7 658.762,1048.24 660.254,1048.67 661.741,1048.99 663.221,1049.19 664.691,1049.28 666.147,1049.26 667.588,1049.11 669.011,1048.84 "/>
     <polygon id="_285645600" class="fil1" points="1248.32,1583.77 2384.2,2719.65 2226.9,2719.65 1091.02,1583.77 "/>
     <polygon id="_285645336" class="fil1" points="1257.63,960.398 2393.51,2096.28 2391.47,2095.66 2389.45,2095.02 2387.42,2094.36 2385.41,2093.69 2383.4,2093 2381.4,2092.29 2379.41,2091.57 2377.42,2090.83 2375.45,2090.07 2373.48,2089.3 2371.51,2088.51 2369.56,2087.71 2367.61,2086.88 2365.67,2086.04 2363.74,2085.19 2361.81,2084.32 2359.89,2083.43 2357.98,2082.53 2356.08,2081.61 2354.18,2080.68 2352.3,2079.73 2350.42,2078.76 2348.55,2077.78 2346.68,2076.78 2344.83,2075.77 2342.98,2074.74 2341.14,2073.69 2339.3,2072.63 2337.48,2071.56 2335.66,2070.47 2333.85,2069.36 2332.05,2068.24 1196.17,932.361 1197.97,933.481 1199.78,934.587 1201.6,935.677 1203.42,936.752 1205.25,937.811 1207.1,938.855 1208.94,939.884 1210.8,940.898 1212.66,941.896 1214.54,942.877 1216.42,943.843 1218.3,944.794 1220.2,945.729 1222.1,946.647 1224.01,947.551 1225.93,948.438 1227.85,949.308 1229.79,950.162 1231.73,951.001 1233.68,951.823 1235.63,952.628 1237.59,953.418 1239.57,954.191 1241.54,954.948 1243.53,955.687 1245.52,956.411 1247.52,957.118 1249.53,957.807 1251.54,958.481 1253.56,959.136 1255.59,959.775 "/>
     <polygon id="_285645048" class="fil1" points="1196.17,932.361 2332.05,2068.24 2235.32,2076.95 1099.44,941.066 "/>
    </g>
    <path id="_385680520" class="fil1" d="M1330.61 464.229c69.9532,0 133.302,28.3713 179.16,74.23 45.8599,45.8587 74.2312,109.207 74.2312,179.16 0,69.952 -28.3713,133.3 -74.2312,179.159 -45.8587,45.8599 -109.207,74.23 -179.16,74.23 -25.5248,0 -49.9063,-3.66851 -72.9804,-10.611 -21.7583,-6.54567 -42.2882,-16.0028 -61.4611,-28.037l-96.7265 8.70591 -32.5087 2.92559 14.8347 -29.0858 32.9646 -64.6347c-11.5394,-18.7252 -20.328,-38.3315 -26.511,-58.5532 -7.42323,-24.2717 -11.0008,-49.1138 -11.0008,-74.0989 0,-69.9532 28.3713,-133.302 74.2312,-179.16 45.8575,-45.8587 109.206,-74.23 179.158,-74.23zm-279.642 497.692c7.29922,-6.06142 15.2291,-8.62087 22.252,-6.30473 14.8264,4.87678 20.0055,29.6173 11.5583,55.2508 -8.44016,25.6406 -27.3036,42.4618 -42.1217,37.5827 -1.94291,-0.640158 -3.71929,-1.62165 -5.32205,-2.90079 -6.99686,28.2709 -14.7815,48.5552 -18.7394,54.3827 -10.8543,15.9862 -43.3713,46.0465 -78.2776,70.6134l0 34.4965 7.35709 28.6134c9.86694,4.38426 19.3217,8.64213 28.3807,12.7784l0.200788 0.0921261c140.267,64.076 185.386,99.3981 204.187,116.041 31.6748,28.0276 49.193,132.499 67.8745,221.204l-157.295 0 -18.4701 0 -105.93 0 -38.1437 0 -24.7205 0 -2.77205 0 -44.8288 0 -44.8288 0 -2.41418 0 -39.8906 0 -22.9736 0 -106.278 0 -18.4807 0 -157.292 0c18.6803,-88.7056 36.2067,-193.177 67.8733,-221.204 18.5197,-16.3949 61.03,-50.0646 196.107,-112.176l0.187795 -0.317717 23.1484 -10.2791c4.85315,-2.17795 9.81379,-4.38662 14.8831,-6.62953l5.79922 -28.1221 0 -34.4988c-34.9028,-24.5669 -67.4174,-54.626 -78.2705,-70.6111 -3.9378,-5.79449 -11.6575,-25.8839 -18.6248,-53.9067 -1.43386,1.04646 -3,1.86142 -4.69134,2.41772 -14.8264,4.88622 -33.6898,-11.935 -42.1288,-37.5756 -8.44135,-25.6335 -3.26811,-50.3741 11.5547,-55.2508 4.67835,-1.54252 9.75709,-0.922442 14.7851,1.45394 -21.2067,-108.291 14.3327,-180.754 73.2686,-218.165 41.7307,-26.4886 80.6174,-36.6886 116.392,-38.0422 31.0051,-1.17165 59.5961,5.10119 85.9583,13.0925 12.8882,3.90591 24.7571,8.75552 35.9457,13.5295 24.8894,10.6205 98.8654,40.9689 61.0961,75.5316 33.8705,41.0469 31.9855,100.786 23.6847,158.904z"/>
   </g>
  </g>
  <path class="fil2" d="M1024 0c565.538,0 1024,458.462 1024,1024 0,565.538 -458.462,1024 -1024,1024 -565.538,0 -1024,-458.462 -1024,-1024 0,-565.538 458.462,-1024 1024,-1024z"/>
  <path class="fil3" d="M1073.22 955.616c-14.8193,-4.88741 -33.6815,11.935 -42.1217,37.5744 -8.44016,25.6335 -3.26811,50.3741 11.5583,55.2591 14.8181,4.87914 33.6815,-11.9421 42.1217,-37.5827 8.44725,-25.6335 3.26811,-50.3741 -11.5583,-55.2508z"/>
  <path class="fil3" d="M639.838 955.616c14.8264,-4.88741 33.6898,11.9421 42.13,37.5744 8.44016,25.6335 3.26811,50.3741 -11.5559,55.252 -14.8264,4.88622 -33.6898,-11.935 -42.1288,-37.5756 -8.44135,-25.6335 -3.26811,-50.3741 11.5547,-55.2508z"/>
  <path class="fil4" d="M934.559 1227.88c173.336,75.9863 225.333,116.497 245.884,134.689 31.6748,28.0276 49.193,132.499 67.8745,221.204l-392.159 0 -392.158 0c18.6803,-88.7056 36.2067,-193.177 67.8733,-221.204 20.5512,-18.1925 70.643,-57.6579 243.981,-133.654l158.705 -1.03583z"/>
  <path class="fil5" d="M934.567 1227.88c173.328,75.9863 225.325,116.497 245.876,134.689 31.6748,28.0276 49.193,132.499 67.8745,221.204l-392.159 0 -392.151 0c18.6791,-88.7056 36.1996,-193.177 67.8721,-221.204 20.5453,-18.1925 70.6371,-57.6579 243.975,-133.654l158.713 -1.03583z"/>
  <path class="fil6" d="M771.999 1076.41l0 192.132c46.2898,56.6941 122.036,54.7311 168.319,0l0 -192.132c0,-103.748 -168.319,-103.748 -168.319,0z"/>
  <path class="fil7" d="M771.999 1076.41l0 128.636c31.8484,23.2146 62.5441,36.2197 84.1595,36.2197 21.6154,0 52.317,-13.0051 84.1595,-36.2197l0 -128.636c0,-103.748 -168.319,-103.748 -168.319,0z"/>
  <path class="fil6" d="M856.158 731.457c282.47,0 180.888,341.309 162.437,368.475 -20.3457,29.9634 -116.799,109.376 -162.437,109.376 -45.6378,0 -142.086,-79.4127 -162.43,-109.376 -18.4583,-27.1654 -120.04,-368.475 162.43,-368.475z"/>
  <path class="fil8" d="M985.272 845.678c16.3843,89.5158 57.4182,81.1607 54.163,186.204 12.1335,-75.3662 35.7532,-170.812 -12.1512,-228.866 37.7693,-34.5626 -36.2067,-64.9111 -61.0961,-75.5316 -11.1886,-4.77402 -23.0575,-9.62363 -35.9457,-13.5295 -26.3622,-7.99134 -54.9532,-14.2642 -85.9583,-13.0925 -35.7744,1.35354 -74.6611,11.5536 -116.392,38.0422 -69.2623,43.9666 -106.211,136.343 -56.7166,278.388 7.51654,-50.0552 6.57875,-88.4068 41.015,-122.427 35.954,-35.5181 117.025,60.9709 273.082,-49.1882z"/>
  <path class="fil9" d="M855.721 1310.32c0,0 117.45,28.0394 117.45,35.1485 0,7.11024 -44.6918,238.301 -44.6918,238.301l-159.455 0 -18.2764 -237.281 104.973 -36.1677z"/>
  <polygon class="fil10" points="940.318,1230.41 940.318,1268.54 903.759,1583.77 966.623,1583.77 1035.78,1443.37 969.768,1399.36 1050.44,1361.64 976.257,1246.52 "/>
  <polygon class="fil10" points="771.999,1230.61 771.993,1268.54 808.915,1583.77 746.051,1583.77 676.901,1443.37 742.909,1399.36 662.232,1361.64 728.168,1250.07 "/>
  <polygon class="fil11" points="940.318,1205.04 947.675,1233.66 927.085,1382.69 855.721,1310.33 "/>
  <path class="fil12" d="M892.352 1349.31l-20.3835 31.5756c-10.5331,0 -21.0815,0 -31.6146,0l-20.3894 -31.5756 35.7567 -38.9847 36.6307 38.9847z"/>
  <polygon class="fil13" points="871.968,1380.88 900.987,1583.77 811.329,1583.77 840.348,1380.88 "/>
  <polygon class="fil11" points="771.999,1205.04 766.194,1233.19 785.539,1384.18 855.721,1310.33 "/>
  <path class="fil14" d="M1091.02 1583.77l-18.4701 0c0.825591,-59.7189 0.825591,-102.762 0.825591,-102.762 0,0 8.18268,44.7307 17.6445,102.762z"/>
  <path class="fil14" d="M621.292 1583.77l18.4807 0c-0.825591,-59.7189 -0.825591,-102.762 -0.825591,-102.762 0,0 -8.1815,44.7307 -17.6551,102.762z"/>
  <path class="fil15" d="M1330.61 464.229c69.9532,0 133.302,28.3713 179.16,74.23 45.8599,45.8587 74.2312,109.207 74.2312,179.16 0,69.952 -28.3713,133.3 -74.2312,179.159 -45.8587,45.8599 -109.207,74.23 -179.16,74.23 -25.5248,0 -49.9063,-3.66851 -72.9804,-10.611 -21.7583,-6.54567 -42.2882,-16.0028 -61.4611,-28.037l-96.7265 8.70591 -32.5087 2.92559 14.8347 -29.0858 32.9646 -64.6347c-11.5394,-18.7252 -20.328,-38.3315 -26.511,-58.5532 -7.42323,-24.2717 -11.0008,-49.1138 -11.0008,-74.0989 0,-69.9532 28.3713,-133.302 74.2312,-179.16 45.8575,-45.8587 109.206,-74.23 179.158,-74.23z"/>
  <path class="fil16" d="M1303.09 869.148l0 -57.4819 57.4831 0 0 57.4819 -57.4831 0zm52.1752 -77.3186l-52.1752 0c-0.13937,-7.54253 -0.209055,-12.0827 -0.209055,-13.7599 0,-16.9028 2.79449,-30.802 8.38111,-41.6977 5.58898,-10.9654 16.8331,-23.1898 33.5953,-36.8788 16.7646,-13.6181 26.8217,-22.5591 30.0343,-26.8193 5.09882,-6.63544 7.61339,-14.0398 7.61339,-22.0725 0,-11.1744 -4.47048,-20.7437 -13.4102,-28.7764 -8.93977,-7.96182 -20.9551,-11.9433 -36.1111,-11.9433 -14.5961,0 -26.8193,4.19055 -36.6685,12.5032 -9.77717,8.31142 -16.5532,21.0225 -20.2559,38.0646l-52.7327 -6.56457c1.46811,-24.4465 11.8748,-45.1902 31.1516,-62.2323 19.3477,-17.0421 44.6303,-25.5638 76.0619,-25.5638 32.967,0 59.2288,8.66103 78.7855,25.9134 19.4858,17.2512 29.2654,37.2957 29.2654,60.2764 0,12.6413 -3.63189,24.6555 -10.7563,35.9693 -7.1941,11.3162 -22.4906,26.7508 -45.9591,46.239 -12.1512,10.1268 -19.6961,18.2291 -22.6299,24.3756 -2.93268,6.14528 -4.26024,17.1118 -3.98032,32.967z"/>
 </g>
</svg>
